# 3ds Max Wavefront OBJ Exporter v0.97b - (c)2007 guruware
# File Created: 29.04.2019 17:59:04

mtllib TopColumnaEscalera.mtl

#
# object Box002
#

v  -3.9657 0.0000 3.9283
v  -3.9657 0.0000 -3.9283
v  3.9657 0.0000 -3.9283
v  3.9657 0.0000 3.9283
v  -3.9657 5.5414 3.9283
v  3.9657 5.5414 3.9283
v  3.9657 5.5414 -3.9283
v  -3.9657 5.5414 -3.9283
v  -3.9657 1.0000 4.8016
v  3.9657 1.0000 4.8016
v  3.9657 4.5414 4.8016
v  -3.9657 4.5414 4.8016
v  4.9657 1.0000 3.9283
v  4.9657 1.0000 -3.9283
v  4.9657 4.5414 -3.9283
v  4.9657 4.5414 3.9283
v  3.9657 1.0000 -4.8016
v  -3.9657 1.0000 -4.8016
v  -3.9657 4.5414 -4.8016
v  3.9657 4.5414 -4.8016
v  -4.9657 1.0000 -3.9283
v  -4.9657 1.0000 3.9283
v  -4.9657 4.5414 3.9283
v  -4.9657 4.5414 -3.9283
# 24 vertices

vn -0.3416 -0.8756 0.3416
vn -0.3416 -0.8756 -0.3416
vn 0.3416 -0.8756 -0.3416
vn 0.3416 -0.8756 0.3416
vn -0.3416 0.8756 0.3416
vn 0.3416 0.8756 0.3416
vn 0.3416 0.8756 -0.3416
vn -0.3416 0.8756 -0.3416
vn -0.3416 -0.3416 0.8756
vn 0.3416 -0.3416 0.8756
vn 0.3416 0.3416 0.8756
vn -0.3416 0.3416 0.8756
vn 0.8756 -0.3416 0.3416
vn 0.8756 -0.3416 -0.3416
vn 0.8756 0.3416 -0.3416
vn 0.8756 0.3416 0.3416
vn 0.3416 -0.3416 -0.8756
vn -0.3416 -0.3416 -0.8756
vn -0.3416 0.3416 -0.8756
vn 0.3416 0.3416 -0.8756
vn -0.8756 -0.3416 -0.3416
vn -0.8756 -0.3416 0.3416
vn -0.8756 0.3416 0.3416
vn -0.8756 0.3416 -0.3416
# 24 vertex normals

vt 0.8993 0.0909 0.0000
vt 0.8993 0.9091 0.0000
vt 0.1007 0.9091 0.0000
vt 0.1007 0.0909 0.0000
vt 0.1007 0.1805 0.0000
vt 0.8993 0.1805 0.0000
vt 0.8993 0.8195 0.0000
vt 0.1007 0.8195 0.0000
vt 0.0909 0.1805 0.0000
vt 0.9091 0.1805 0.0000
vt 0.9091 0.8195 0.0000
vt 0.0909 0.8195 0.0000
vt -0.0245 0.3034 0.0000
vt -0.0797 0.0321 0.0000
vt -0.0779 0.2507 0.0000
vt -0.0779 0.0753 0.0000
vt -0.0342 0.3034 0.0000
vt -0.0852 0.0321 0.0000
vt -0.0779 0.9247 0.0000
vt -0.0779 0.7493 0.0000
vt -0.0797 0.9679 0.0000
vt -0.0245 0.6966 0.0000
vt -0.0852 0.9679 0.0000
vt -0.0342 0.6966 0.0000
vt 0.9091 -0.0034 0.0000
vt 0.0909 -0.0034 0.0000
vt 0.8993 0.2160 0.0000
vt 0.1007 0.2160 0.0000
vt 0.1007 0.7840 0.0000
vt 0.8993 0.7840 0.0000
vt 0.0909 1.0034 0.0000
vt 0.9091 1.0034 0.0000
vt 0.3461 0.1805 0.0000
vt 0.3461 0.8195 0.0000
vt 0.6539 0.8195 0.0000
vt 0.6539 0.1805 0.0000
vt 0.3559 0.1805 0.0000
vt 0.3559 0.8195 0.0000
# 38 texture coords

o Box002
g Box002
usemtl wire_138008110
s 1
f 1/1/1 2/2/2 3/3/3 4/4/4 
f 5/4/5 6/1/6 7/2/7 8/3/8 
f 9/5/9 10/6/10 11/7/11 12/8/12 
f 13/9/13 14/10/14 15/11/15 16/12/16 
f 17/5/17 18/6/18 19/7/19 20/8/20 
f 21/9/21 22/10/22 23/11/23 24/12/24 
s 2
f 9/5/9 22/13/22 1/14/1 
f 4/4/4 13/15/13 10/16/10 
f 21/9/21 18/17/18 2/18/2 
f 3/3/3 17/19/17 14/20/14 
f 12/8/12 5/21/5 23/22/23 
f 16/12/16 6/23/6 11/24/11 
f 24/12/24 8/23/8 19/24/19 
f 20/8/20 7/21/7 15/22/15 
s 4
f 1/25/1 22/10/22 21/9/21 2/26/2 
s 8
f 2/27/2 18/6/18 17/5/17 3/28/3 
s 4
f 3/25/3 14/10/14 13/9/13 4/26/4 
s 8
f 4/27/4 10/6/10 9/5/9 1/28/1 
s 4
f 5/29/5 12/8/12 11/7/11 6/30/6 
s 8
f 6/31/6 16/12/16 15/11/15 7/32/7 
s 4
f 7/29/7 20/8/20 19/7/19 8/30/8 
s 8
f 8/31/8 24/12/24 23/11/23 5/32/5 
s 16
f 10/33/10 13/9/13 16/12/16 11/34/11 
f 12/35/12 23/11/23 22/10/22 9/36/9 
f 14/37/14 17/5/17 20/8/20 15/38/15 
f 18/33/18 21/9/21 24/12/24 19/34/19 
# 18 polygons - 8 triangles

